Coordinates
version=1
nRows=14
nColumns=61
inDegrees=no

Units are S.I. units (second, meters, Newtons, ...)
If the header above contains a line with 'inDegrees', this indicates whether rotational values are in degrees (yes) or radians (no).

endheader
time	pelvis_x	pelvis_y	pelvis_z	femur_r_x	femur_r_y	femur_r_z	tibia_r_x	tibia_r_y	tibia_r_z	talus_r_x	talus_r_y	talus_r_z	calcn_r_x	calcn_r_y	calcn_r_z	toes_r_x	toes_r_y	toes_r_z	femur_l_x	femur_l_y	femur_l_z	tibia_l_x	tibia_l_y	tibia_l_z	talus_l_x	talus_l_y	talus_l_z	calcn_l_x	calcn_l_y	calcn_l_z	toes_l_x	toes_l_y	toes_l_z	torso_x	torso_y	torso_z	humerus_r_x	humerus_r_y	humerus_r_z	ulna_r_x	ulna_r_y	ulna_r_z	radius_r_x	radius_r_y	radius_r_z	hand_r_x	hand_r_y	hand_r_z	humerus_l_x	humerus_l_y	humerus_l_z	ulna_l_x	ulna_l_y	ulna_l_z	radius_l_x	radius_l_y	radius_l_z	hand_l_x	hand_l_y	hand_l_z
27.6	0.656772	0.991632	-0.970003	0.724447	0.921812	-0.905148	0.690007	0.519411	-0.914062	0.653704	0.0568587	-0.873376	0.661548	0.0217139	-0.836534	0.659055	0.0225269	-1.01253	0.570784	0.942583	-0.907866	0.499051	0.545797	-0.862445	0.473187	0.117263	-0.681844	0.474093	0.0952799	-0.635262	0.413855	0.0521699	-0.794928	0.667134	1.07873	-0.89024	0.881677	1.42433	-1.01904	0.91613	1.08086	-0.957923	0.945359	1.06123	-0.980242	0.828905	0.918791	-1.17275	0.501161	1.4604	-0.984239	0.430376	1.12779	-0.899051	0.390528	1.11694	-0.893377	0.34197	0.882974	-1.01091
27.61	0.656495	0.991306	-0.968478	0.724005	0.921854	-0.903059	0.689795	0.519464	-0.912457	0.653626	0.0567612	-0.873395	0.661399	0.021639	-0.836516	0.659114	0.022329	-1.01251	0.57032	0.942354	-0.906524	0.499578	0.544375	-0.870886	0.473291	0.11212	-0.699444	0.473675	0.0892746	-0.653271	0.41569	0.0489164	-0.814483	0.666365	1.07873	-0.889012	0.880707	1.42383	-1.01949	0.915631	1.08043	-0.958206	0.944688	1.06078	-0.980729	0.827091	0.918182	-1.17243	0.500353	1.4603	-0.983355	0.4308	1.12791	-0.896329	0.391018	1.11703	-0.89026	0.342565	0.882227	-1.00615
27.62	0.656243	0.991001	-0.966994	0.723572	0.921978	-0.900937	0.689529	0.519603	-0.911056	0.653401	0.0567751	-0.873465	0.661087	0.0217035	-0.836521	0.659311	0.0221661	-1.01252	0.569865	0.94215	-0.905243	0.500087	0.543236	-0.879142	0.473578	0.107663	-0.716348	0.473478	0.0840306	-0.670572	0.417282	0.046354	-0.833061	0.665548	1.07879	-0.887871	0.879741	1.42344	-1.01979	0.91511	1.08003	-0.958807	0.944105	1.0604	-0.981431	0.825692	0.917645	-1.1725	0.499551	1.46034	-0.982386	0.431569	1.12807	-0.893639	0.391854	1.11708	-0.887335	0.343611	0.881495	-1.00172
27.63	0.65607	0.99091	-0.965563	0.723052	0.922093	-0.898941	0.689286	0.519722	-0.909799	0.65323	0.0567871	-0.873476	0.660756	0.0217227	-0.836491	0.659455	0.0221153	-1.0125	0.569358	0.942138	-0.904219	0.50057	0.542551	-0.886986	0.473875	0.103979	-0.732488	0.473347	0.0796365	-0.687088	0.418741	0.0444213	-0.850668	0.664833	1.0789	-0.886592	0.878824	1.42308	-1.02002	0.914457	1.07968	-0.959182	0.943323	1.06004	-0.98196	0.82394	0.917168	-1.17234	0.498773	1.4603	-0.981539	0.432321	1.12821	-0.890986	0.392675	1.11712	-0.884431	0.344606	0.880893	-0.997548
27.64	0.655936	0.990706	-0.964046	0.722414	0.922087	-0.896719	0.689006	0.519714	-0.908643	0.653104	0.0566813	-0.873437	0.660469	0.0215737	-0.836461	0.659583	0.0221329	-1.01247	0.568782	0.942302	-0.903039	0.501148	0.542212	-0.894555	0.474231	0.10095	-0.747957	0.473206	0.0760102	-0.702891	0.420057	0.0430275	-0.867413	0.66432	1.07901	-0.885393	0.877993	1.42287	-1.02018	0.913688	1.07944	-0.959541	0.942458	1.05977	-0.982422	0.822242	0.91668	-1.17211	0.498053	1.46023	-0.98075	0.433104	1.12834	-0.888393	0.393522	1.11714	-0.88163	0.345786	0.880252	-0.993499
27.65	0.655726	0.990425	-0.96258	0.721775	0.922104	-0.894532	0.688673	0.519739	-0.907453	0.652926	0.0565991	-0.873516	0.660165	0.0214431	-0.836561	0.659543	0.0221951	-1.01257	0.56819	0.942338	-0.901868	0.501812	0.541918	-0.901898	0.474717	0.0982624	-0.762747	0.473152	0.0727302	-0.718029	0.421222	0.0421585	-0.883405	0.663669	1.0791	-0.884297	0.877161	1.42269	-1.02005	0.912852	1.07917	-0.959931	0.941536	1.0595	-0.982914	0.820578	0.916191	-1.17197	0.497309	1.4602	-0.979932	0.433813	1.12848	-0.885986	0.394292	1.11717	-0.879049	0.347046	0.879627	-0.989724
27.66	0.655442	0.990202	-0.961145	0.721033	0.922133	-0.892405	0.688301	0.519772	-0.906393	0.652797	0.056528	-0.873651	0.659935	0.0213497	-0.836697	0.659445	0.0221709	-1.01271	0.567509	0.942432	-0.900759	0.502541	0.541842	-0.908937	0.475067	0.0959755	-0.777117	0.472911	0.0699505	-0.732709	0.422166	0.0415402	-0.898836	0.662969	1.07921	-0.883197	0.87632	1.42255	-1.0198	0.911865	1.07892	-0.960183	0.940489	1.05925	-0.983236	0.819016	0.915861	-1.1719	0.496515	1.46015	-0.979316	0.434438	1.12859	-0.883868	0.39498	1.11718	-0.876736	0.348089	0.879081	-0.98637
27.67	0.655067	0.990231	-0.959662	0.720154	0.922216	-0.890391	0.687918	0.51985	-0.905664	0.65277	0.0565233	-0.873705	0.659819	0.0213539	-0.836727	0.659569	0.0221198	-1.01274	0.566717	0.942786	-0.899629	0.503317	0.542172	-0.91579	0.475176	0.0942283	-0.791361	0.472348	0.0678257	-0.747214	0.422922	0.0412446	-0.91404	0.662344	1.07943	-0.881904	0.875489	1.42251	-1.01948	0.91087	1.07879	-0.960282	0.939438	1.0591	-0.983397	0.81748	0.915658	-1.1717	0.495692	1.46006	-0.978875	0.43498	1.12866	-0.88202	0.395585	1.11716	-0.874684	0.348999	0.878456	-0.98312
27.68	0.654597	0.990143	-0.958372	0.719426	0.922382	-0.888612	0.687603	0.520018	-0.904979	0.652755	0.0566162	-0.873795	0.659731	0.0214422	-0.836806	0.659724	0.0222252	-1.01282	0.566016	0.942795	-0.898604	0.503701	0.542365	-0.92253	0.475226	0.0926452	-0.804763	0.47186	0.0657174	-0.760973	0.423831	0.0413548	-0.928544	0.661446	1.07957	-0.880839	0.874631	1.4224	-1.01896	0.909967	1.07857	-0.960379	0.93847	1.0589	-0.983578	0.815964	0.915392	-1.17148	0.494821	1.46003	-0.978543	0.435395	1.12878	-0.880343	0.396056	1.1172	-0.872847	0.34997	0.877826	-0.980014
27.69	0.654144	0.99002	-0.957343	0.718715	0.922469	-0.887142	0.687237	0.520108	-0.904085	0.652696	0.0566152	-0.873929	0.659623	0.0214024	-0.836968	0.659727	0.0223634	-1.01298	0.56533	0.942676	-0.897918	0.503578	0.542606	-0.929129	0.475343	0.09148	-0.816808	0.471657	0.0639663	-0.773409	0.425059	0.0417615	-0.941683	0.660507	1.0796	-0.879946	0.873869	1.42222	-1.01832	0.908922	1.07826	-0.960353	0.937383	1.05859	-0.983608	0.814531	0.915276	-1.17144	0.49402	1.45994	-0.978357	0.435753	1.1289	-0.87879	0.39646	1.11722	-0.87119	0.351013	0.877226	-0.977236
27.7	0.65368	0.989939	-0.956302	0.717898	0.9225	-0.88567	0.686801	0.520139	-0.903279	0.652597	0.056569	-0.873939	0.659483	0.0213546	-0.836972	0.659838	0.0223396	-1.01298	0.564577	0.942808	-0.89714	0.50341	0.543203	-0.935513	0.47552	0.0908991	-0.827945	0.471516	0.0629483	-0.784855	0.426207	0.0423974	-0.95369	0.659792	1.07969	-0.879089	0.873262	1.42219	-1.01761	0.907752	1.07808	-0.960161	0.936198	1.05839	-0.98342	0.813198	0.915284	-1.1713	0.49335	1.45987	-0.978211	0.435952	1.12904	-0.877439	0.396698	1.11732	-0.869717	0.351978	0.876683	-0.974619
27.71	0.653225	0.990118	-0.955451	0.71725	0.922697	-0.884628	0.686459	0.520333	-0.902463	0.652491	0.0566918	-0.873989	0.659297	0.0214992	-0.836986	0.659959	0.0223768	-1.013	0.563955	0.942914	-0.8966	0.503332	0.54384	-0.941389	0.475635	0.0904675	-0.838362	0.47135	0.0621664	-0.795528	0.42747	0.0428387	-0.964884	0.659025	1.07985	-0.878191	0.872687	1.42222	-1.01674	0.906613	1.07796	-0.959852	0.935039	1.05825	-0.983117	0.811887	0.915201	-1.17095	0.492707	1.4599	-0.978012	0.436179	1.12921	-0.876288	0.396952	1.11741	-0.868547	0.353094	0.876132	-0.972331
27.72	0.652725	0.990172	-0.954803	0.716607	0.922844	-0.883761	0.6861	0.520477	-0.901703	0.652391	0.0567641	-0.874095	0.659143	0.0215772	-0.837078	0.65995	0.0224207	-1.01309	0.563327	0.94289	-0.896209	0.503175	0.544399	-0.946944	0.475736	0.0901314	-0.847869	0.471211	0.061551	-0.805246	0.428936	0.0430523	-0.975102	0.658192	1.07994	-0.877555	0.872128	1.42228	-1.01573	0.905354	1.07786	-0.959448	0.933781	1.05813	-0.982694	0.810643	0.915142	-1.17058	0.492057	1.45993	-0.977865	0.436282	1.12931	-0.875521	0.397077	1.11744	-0.867786	0.354132	0.875487	-0.97038
27.73	0.652026	0.99017	-0.954288	0.715754	0.922933	-0.883023	0.685652	0.520552	-0.90124	0.652272	0.0567844	-0.874156	0.658946	0.0216083	-0.837114	0.660023	0.022397	-1.01312	0.562495	0.942842	-0.895935	0.502933	0.544937	-0.952048	0.475588	0.0898492	-0.856786	0.470794	0.0610198	-0.814361	0.430035	0.0433249	-0.984672	0.657186	1.07998	-0.87707	0.871508	1.42235	-1.01458	0.904087	1.07777	-0.958909	0.932526	1.05802	-0.982129	0.809491	0.9152	-1.17021	0.491326	1.45998	-0.977829	0.436182	1.12945	-0.874845	0.396987	1.11749	-0.86718	0.355139	0.874909	-0.968724
